<svg height="496pt" viewBox="-12 0 496 496" width="496pt" xmlns="http://www.w3.org/2000/svg"><path d="m80 440 112 24-112 24" fill="#3f3f3f"/><path d="m80 456v32l74.664062-16zm0 0" fill="#717171"/><path d="m96 464c0-13.253906-7.164062-24-16-24s-16 10.746094-16 24 7.164062 24 16 24 16-10.746094 16-24zm0 0" fill="#3f3f3f"/><path d="m80 464c0-11.417969-3.582031-20.671875-8-20.671875s-8 9.253906-8 20.671875 3.582031 20.671875 8 20.671875 8-9.253906 8-20.671875zm0 0" fill="#717171"/><path d="m416 376 24 112 24-112" fill="#3f3f3f"/><path d="m448 376h-32l16 74.664062zm0 0" fill="#717171"/><path d="m464 376c0-8.835938-10.746094-16-24-16s-24 7.164062-24 16 10.746094 16 24 16 24-7.164062 24-16zm0 0" fill="#3f3f3f"/><path d="m448 376c0-8.296875-7.164062-15.023438-16-15.023438s-16 6.726563-16 15.023438 7.164062 15.023438 16 15.023438 16-6.726563 16-15.023438zm0 0" fill="#717171"/><path d="m336 376 24 112 24-112" fill="#3f3f3f"/><path d="m368 376h-32l16 74.664062zm0 0" fill="#717171"/><path d="m384 376c0-8.835938-10.746094-16-24-16s-24 7.164062-24 16 10.746094 16 24 16 24-7.164062 24-16zm0 0" fill="#3f3f3f"/><path d="m368 376c0-8.296875-7.164062-15.023438-16-15.023438s-16 6.726563-16 15.023438 7.164062 15.023438 16 15.023438 16-6.726563 16-15.023438zm0 0" fill="#717171"/><path d="m8 328 24 112 24-112" fill="#3f3f3f"/><path d="m40 328h-32l16 74.664062zm0 0" fill="#717171"/><path d="m56 328c0-8.835938-10.746094-16-24-16s-24 7.164062-24 16 10.746094 16 24 16 24-7.164062 24-16zm0 0" fill="#3f3f3f"/><path d="m40 328c0-8.296875-7.164062-15.023438-16-15.023438s-16 6.726563-16 15.023438 7.164062 15.023438 16 15.023438 16-6.726563 16-15.023438zm0 0" fill="#717171"/><path d="m256 488c-22.089844 0-40-17.910156-40-40v-328h80v328c0 22.089844-17.910156 40-40 40zm0 0" fill="#452f22"/><path d="m244 485.96875c16.183594-5.121094 28-20.082031 28-37.96875v-328h-56v328c0 17.878906 11.816406 32.839844 28 37.96875zm0 0" fill="#916447"/><path d="m200 120h112v-24h32l16 16h40v-96h-40l-16 16h-32v-24h-84.273438c-18.269531 0-36.335937 3.910156-52.964843 11.472656l-1.777344.808594c-38.199219 17.359375-65.464844 52.34375-72.96875 93.628906l-4.015625 22.089844h32l8.703125-26.121094c4.359375-13.0625 16.585937-21.878906 30.359375-21.878906h.9375c17.671875 0 32 14.328125 32 32zm0 0" fill="#3f3f3f"/><path d="m360 16-16 16h-64v-24h-52.273438c-18.269531 0-36.335937 3.910156-52.964843 11.472656l-1.777344.808594c-38.199219 17.359375-65.464844 52.34375-72.96875 93.628906l-4.015625 22.089844 8.703125-26.121094c4.359375-13.0625 16.585937-21.878906 30.359375-21.878906h.9375c5.640625 0 10.855469 1.585938 15.457031 4.144531 4.671875-2.617187 9.992188-4.144531 15.605469-4.144531h.9375c17.671875 0 32 14.328125 32 32h80v-24h64l16 16h8v-96zm0 0" fill="#717171"/><path d="m256 496c-26.472656 0-48-21.527344-48-48v-328c0-4.414062 3.585938-8 8-8h80c4.414062 0 8 3.585938 8 8v328c0 26.472656-21.527344 48-48 48zm-32-368v320c0 17.648438 14.351562 32 32 32s32-14.351562 32-32v-320zm0 0"/><path d="m360 400c-17.945312 0-32-10.542969-32-24s14.054688-24 32-24 32 10.542969 32 24-14.054688 24-32 24zm0-32c-9.769531 0-16 4.734375-16 8s6.230469 8 16 8 16-4.734375 16-8-6.230469-8-16-8zm0 0"/><path d="m360 496c-3.777344 0-7.03125-2.640625-7.824219-6.328125l-24-112 15.648438-3.351563 16.175781 75.503907 16.175781-75.496094 15.648438 3.351563-24 112c-.792969 3.679687-4.046875 6.320312-7.824219 6.320312zm0 0"/><path d="m440 400c-17.945312 0-32-10.542969-32-24s14.054688-24 32-24 32 10.542969 32 24-14.054688 24-32 24zm0-32c-9.769531 0-16 4.734375-16 8s6.230469 8 16 8 16-4.734375 16-8-6.230469-8-16-8zm0 0"/><path d="m440 496c-3.777344 0-7.03125-2.640625-7.824219-6.328125l-24-112 15.648438-3.351563 16.175781 75.503907 16.175781-75.496094 15.648438 3.351563-24 112c-.792969 3.679687-4.046875 6.320312-7.824219 6.320312zm0 0"/><path d="m32 352c-17.945312 0-32-10.542969-32-24s14.054688-24 32-24 32 10.542969 32 24-14.054688 24-32 24zm0-32c-9.769531 0-16 4.734375-16 8s6.230469 8 16 8 16-4.734375 16-8-6.230469-8-16-8zm0 0"/><path d="m32 448c-3.777344 0-7.03125-2.640625-7.824219-6.328125l-24-112 15.648438-3.351563 16.175781 75.503907 16.175781-75.496094 15.648438 3.351563-24 112c-.792969 3.679687-4.046875 6.320312-7.824219 6.320312zm0 0"/><path d="m80 496c-13.457031 0-24-14.054688-24-32s10.542969-32 24-32 24 14.054688 24 32-10.542969 32-24 32zm0-48c-3.265625 0-8 6.230469-8 16s4.734375 16 8 16 8-6.230469 8-16-4.734375-16-8-16zm0 0"/><path d="m81.671875 495.824219-3.351563-15.648438 75.503907-16.175781-75.496094-16.175781 3.351563-15.648438 112 24c3.679687.792969 6.320312 4.046875 6.320312 7.824219s-2.640625 7.03125-6.328125 7.824219zm0 0"/><path d="m216 160h80v16h-80zm0 0"/><path d="m280 8v32h-48v-32" fill="#0c0c0c"/><path d="m232 8h24v32h-24zm0 0" fill="#3f3f3f"/><path d="m216 416h80v16h-80zm0 0"/><path d="m280 48h-48c-4.414062 0-8-3.585938-8-8v-32h16v24h32v-24h16v32c0 4.414062-3.585938 8-8 8zm0 0"/><path d="m128 144h-32c-2.367188 0-4.625-1.046875-6.144531-2.871094-1.519531-1.824218-2.160157-4.226562-1.726563-6.554687l4.015625-22.085938c7.976563-43.847656 36.960938-81.039062 77.527344-99.480469l1.761719-.808593c17.804687-8.09375 36.742187-12.199219 56.292968-12.199219h84.273438c4.414062 0 8 3.585938 8 8v16h20.6875l13.65625-13.65625c1.496094-1.503906 3.535156-2.34375 5.65625-2.34375h40c4.414062 0 8 3.585938 8 8v96c0 4.414062-3.585938 8-8 8h-40c-2.121094 0-4.160156-.839844-5.65625-2.34375l-13.65625-13.65625h-20.6875v16c0 4.414062-3.585938 8-8 8h-112c-4.414062 0-8-3.585938-8-8 0-13.230469-10.769531-24-24-24h-.9375c-10.34375 0-19.496094 6.59375-22.765625 16.40625l-8.703125 26.121094c-1.097656 3.273437-4.144531 5.472656-7.59375 5.472656zm-22.414062-16h16.644531l6.882812-20.65625c5.453125-16.351562 20.710938-27.34375 37.949219-27.34375h.9375c19.320312 0 35.480469 13.769531 39.191406 32h96.808594v-16c0-4.414062 3.585938-8 8-8h32c2.121094 0 4.160156.839844 5.65625 2.34375l13.65625 13.65625h28.6875v-80h-28.6875l-13.65625 13.65625c-1.496094 1.503906-3.535156 2.34375-5.65625 2.34375h-32c-4.414062 0-8-3.585938-8-8v-16h-76.273438c-17.246093 0-33.957031 3.617188-49.65625 10.753906l-1.765624.804688c-35.808594 16.28125-61.382813 49.097656-68.417969 87.785156zm0 0"/></svg>