<?xml version="1.0" standalone="no"?>
<!DOCTYPE svg PUBLIC "-//W3C//DTD SVG 20010904//EN"
 "http://www.w3.org/TR/2001/REC-SVG-20010904/DTD/svg10.dtd">
<svg version="1.0" xmlns="http://www.w3.org/2000/svg"
 width="900.000000pt" height="655.000000pt" viewBox="0 0 900.000000 655.000000"
 preserveAspectRatio="xMidYMid meet">
<metadata>
Created by potrace 1.15, written by Peter Selinger 2001-2017
</metadata>
<g transform="translate(0.000000,655.000000) scale(0.100000,-0.100000)"
fill="#000000" stroke="none">
<path d="M3594 4868 c10 -118 51 -315 92 -438 78 -234 185 -415 328 -555 154
-151 300 -212 481 -202 159 8 285 69 421 203 177 174 315 453 379 769 25 123
48 295 40 303 -2 2 -17 -5 -34 -17 -16 -12 -55 -33 -85 -47 -53 -24 -55 -27
-61 -72 -57 -417 -261 -772 -509 -888 -356 -166 -746 192 -856 786 -12 63 -24
124 -26 135 -3 13 -34 34 -91 63 l-86 43 7 -83z"/>
<path d="M1559 4741 c-29 -29 -39 -80 -21 -107 4 -7 140 -148 303 -315 345
-354 341 -349 377 -426 24 -52 27 -69 27 -168 0 -104 -2 -114 -32 -175 -18
-37 -55 -87 -85 -118 l-54 -52 -439 454 c-241 250 -445 458 -452 461 -49 18
-102 -5 -123 -54 -23 -56 -41 -35 747 -842 73 -75 133 -141 133 -147 0 -18
-107 -108 -155 -131 -130 -61 -284 -49 -402 31 -23 15 -180 171 -348 346 -169
174 -320 323 -336 329 -35 16 -68 5 -98 -33 -24 -30 -26 -59 -8 -91 7 -11 155
-170 329 -351 227 -236 334 -340 375 -365 223 -135 507 -105 698 75 36 33 68
58 73 56 5 -1 201 -201 436 -443 l427 -440 -135 -130 c-129 -124 -136 -132
-136 -169 0 -36 8 -47 109 -150 59 -61 379 -390 711 -731 640 -660 668 -684
799 -726 129 -41 301 -25 411 39 61 35 160 131 232 225 49 64 1367 1440 1858
1939 l125 128 80 -24 c429 -128 914 45 1165 414 60 89 125 230 156 340 32 116
44 335 24 458 -17 111 -68 257 -100 292 -30 32 -73 39 -113 19 -12 -6 -152
-141 -312 -299 -282 -280 -292 -289 -349 -305 -103 -30 -199 -4 -266 71 -44
51 -60 93 -60 161 1 103 14 121 331 439 267 268 291 294 296 331 8 62 -28 96
-142 134 -341 115 -713 52 -1002 -168 -181 -137 -304 -322 -379 -569 -26 -83
-28 -101 -28 -274 0 -185 5 -216 49 -356 6 -18 -112 -136 -782 -784 -433 -420
-838 -813 -899 -873 l-111 -108 -502 513 c-275 282 -516 523 -533 536 -53 38
-75 26 -220 -113 -72 -69 -134 -125 -138 -125 -4 0 -201 198 -439 441 l-433
441 70 71 c114 118 162 238 162 404 0 112 -30 218 -89 308 -40 62 -659 715
-689 727 -35 14 -64 7 -93 -21z m5854 -206 c37 -4 67 -9 67 -13 0 -4 -105
-112 -234 -242 -134 -135 -242 -252 -254 -275 -131 -263 -6 -562 270 -646 105
-32 212 -24 315 25 71 34 96 56 309 267 164 163 234 227 240 218 17 -27 17
-281 0 -362 -72 -352 -333 -611 -685 -682 -64 -13 -116 -16 -210 -13 -111 4
-139 9 -234 42 -124 41 -132 42 -169 18 -21 -14 -1782 -1829 -1851 -1908 -11
-13 -24 -24 -28 -24 -3 0 -12 20 -19 45 -22 77 -74 151 -207 291 -123 132
-126 135 -107 153 29 27 307 295 654 631 173 168 516 500 762 738 315 306 448
441 453 460 3 18 -3 51 -19 92 -46 125 -59 210 -53 359 6 154 23 227 86 356
91 190 249 337 445 415 118 47 263 72 361 64 22 -2 70 -6 108 -9z m-3933
-2240 l105 -105 -30 -28 c-17 -16 -99 -94 -184 -173 -85 -79 -184 -172 -220
-206 l-66 -62 -105 105 -105 104 155 148 c85 81 195 186 245 234 49 48 92 88
95 88 3 0 52 -47 110 -105z m271 -272 c18 -21 152 -161 298 -311 146 -150 267
-276 269 -281 1 -4 -71 -78 -161 -164 -177 -169 -217 -225 -239 -331 -6 -31
-14 -56 -18 -56 -5 0 -23 17 -41 38 -17 20 -154 163 -304 317 -149 154 -288
299 -308 321 l-37 42 242 230 c134 127 248 231 254 231 7 1 27 -16 45 -36z
m841 -869 c141 -145 169 -196 176 -316 l5 -77 -94 -100 c-58 -62 -111 -109
-139 -123 -86 -43 -236 -19 -322 52 -52 43 -99 142 -105 223 -9 107 1 123 181
305 88 89 165 161 171 160 5 -2 63 -58 127 -124z"/>
<path d="M4294 2741 c-170 -49 -350 -218 -398 -377 -5 -16 9 -35 66 -92 39
-39 75 -69 80 -66 4 3 8 16 8 29 0 76 81 206 168 270 76 56 157 78 266 73 78
-3 100 -9 158 -37 134 -66 237 -221 238 -356 0 -29 2 -27 80 50 91 90 90 84
38 194 -43 89 -167 218 -256 264 -37 19 -97 42 -133 51 -86 21 -236 20 -315
-3z"/>
</g>
</svg>
